<!-- Exported by Character Map UWP -->
<svg height="100%" viewBox="31 174 964 669" width="100%" xmlns="http://www.w3.org/2000/svg" xmlns:xlink="http://www.w3.org/1999/xlink">
  <path d="M471,174C477,174 482.167,176.167 486.5,180.5C490.833,184.833 493,190 493,196L493,196L493,822C493,828 490.833,833 486.5,837C482.167,841 477,843 471,843C465,843 460,841 456,837C452,833 450,828 450,822L450,822L450,196C450,190 452,184.833 456,180.5C460,176.167 465,174 471,174ZM555,227C561,227 566,229.167 570,233.5C574,237.833 576,243 576,249L576,249L576,769C576,774.333 574,779.167 570,783.5C566,787.833 561,790 555,790C549,790 543.833,787.833 539.5,783.5C535.167,779.167 533,774.333 533,769L533,769L533,249C533,243 535.167,237.833 539.5,233.5C543.833,229.167 549,227 555,227ZM387,323C393,323 398.167,325.167 402.5,329.5C406.833,333.833 409,339 409,345L409,345L409,673C409,679 406.833,684 402.5,688C398.167,692 393,694 387,694C381,694 376,692 372,688C368,684 366,679 366,673L366,673L366,345C366,339 368,333.833 372,329.5C376,325.167 381,323 387,323ZM639,334C645,334 650,336.167 654,340.5C658,344.833 660,350 660,356L660,356L660,662C660,668 658,673 654,677C650,681 645,683 639,683C633,683 627.833,681 623.5,677C619.167,673 617,668 617,662L617,662L617,356C617,350 619.167,344.833 623.5,340.5C627.833,336.167 633,334 639,334ZM304,386C309.333,386 314.167,388.167 318.5,392.5C322.833,396.833 325,402 325,408L325,408L325,610C325,616 322.833,621 318.5,625C314.167,629 309.333,631 304,631C298,631 292.833,629 288.5,625C284.167,621 282,616 282,610L282,610L282,408C282,402 284.167,396.833 288.5,392.5C292.833,388.167 298,386 304,386ZM722,398C728,398 733.167,400.167 737.5,404.5C741.833,408.833 744,414 744,420L744,420L744,598C744,603.333 741.833,608.167 737.5,612.5C733.167,616.833 728,619 722,619C716.667,619 711.833,616.833 707.5,612.5C703.167,608.167 701,603.333 701,598L701,598L701,420C701,414 703.167,408.833 707.5,404.5C711.833,400.167 716.667,398 722,398ZM220,422C226,422 231,424 235,428C239,432 241,437 241,443L241,443L241,574C241,580 239,585.167 235,589.5C231,593.833 226,596 220,596C214,596 208.833,593.833 204.5,589.5C200.167,585.167 198,580 198,574L198,574L198,443C198,437 200.167,432 204.5,428C208.833,424 214,422 220,422ZM806,426C812,426 817.167,428 821.5,432C825.833,436 828,441 828,447L828,447L828,570C828,576 825.833,581.167 821.5,585.5C817.167,589.833 812,592 806,592C800,592 795,589.833 791,585.5C787,581.167 785,576 785,570L785,570L785,447C785,441 787,436 791,432C795,428 800,426 806,426ZM52,452C58,452 63.1667,454 67.5,458C71.8333,462 74,467 74,473L74,473L74,544C74,550 71.8333,555.167 67.5,559.5C63.1667,563.833 58,566 52,566C46,566 41,563.833 37,559.5C33,555.167 31,550 31,544L31,544L31,473C31,467 33,462 37,458C41,454 46,452 52,452ZM136,452C142,452 147.167,454 151.5,458C155.833,462 158,467 158,473L158,473L158,544C158,550 155.833,555.167 151.5,559.5C147.167,563.833 142,566 136,566C130,566 125,563.833 121,559.5C117,555.167 115,550 115,544L115,544L115,473C115,467 117,462 121,458C125,454 130,452 136,452ZM890,452C896,452 901.167,454 905.5,458C909.833,462 912,467 912,473L912,473L912,544C912,550 909.833,555.167 905.5,559.5C901.167,563.833 896,566 890,566C884,566 879,563.833 875,559.5C871,555.167 869,550 869,544L869,544L869,473C869,467 871,462 875,458C879,454 884,452 890,452ZM974,452C980,452 985,454 989,458C993,462 995,467 995,473L995,473L995,544C995,550 993,555.167 989,559.5C985,563.833 980,566 974,566C968,566 962.833,563.833 958.5,559.5C954.167,555.167 952,550 952,544L952,544L952,473C952,467 954.167,462 958.5,458C962.833,454 968,452 974,452Z" fill="#FFFFFF" fill-opacity="1">
  </path>
</svg>