<!-- Exported by Character Map UWP -->
<svg height="100%" viewBox="195 195 629 630" width="100%" xmlns="http://www.w3.org/2000/svg" xmlns:xlink="http://www.w3.org/1999/xlink">
  <path d="M602,195C631.333,195 659.5,200.333 686.5,211C713.5,221.667 737.333,237 758,257C778.667,277.667 794.667,301 806,327C817.333,353 823.333,380.333 824,409C824,446.333 815,481.167 797,513.5C779,545.833 754,572.333 722,593C709.333,601 699.833,611.833 693.5,625.5C687.167,639.167 685.667,653 689,667C690.333,672.333 691.167,677.667 691.5,683C691.833,688.333 692,693.333 692,698C691.333,714.667 687.833,730.333 681.5,745C675.167,759.667 666,772.667 654,784C642.667,796 629.5,805.333 614.5,812C599.5,818.667 584,822.333 568,823C566,823.667 564.333,824 563,824C561.667,824 560.333,824 559,824C541.667,824 524.833,820.667 508.5,814C492.167,807.333 477.667,798 465,786C451,772.667 441.333,756.333 436,737C430.667,717.667 429.333,696 432,672C437.333,628 437.333,588.667 432,554C426.667,519.333 415.333,484.333 398,449C389.333,432.333 384.167,415.667 382.5,399C380.833,382.333 382.333,366 387,350C393.667,328 403.833,307.333 417.5,288C431.167,268.667 447.333,252 466,238C486,224 507.5,213.167 530.5,205.5C553.5,197.833 577.333,194.333 602,195ZM602,231C581.333,231 561.333,234.167 542,240.5C522.667,246.833 504.667,256 488,268C472,279.333 458.333,293 447,309C435.667,325 427.333,342.333 422,361C418,375 417.333,388.333 420,401C422.667,413.667 426.333,424.333 431,433C455,481 468.333,525.333 471,566C473.667,606.667 473,643.667 469,677C467,695 467.667,710.833 471,724.5C474.333,738.167 481,749.667 491,759C500.333,769 511.5,776.333 524.5,781C537.5,785.667 551,787.667 565,787C577,786.333 588.5,783.5 599.5,778.5C610.5,773.5 620,766.667 628,758C636.667,750 643.167,740.667 647.5,730C651.833,719.333 654.333,708.333 655,697C655,693.667 654.833,690.167 654.5,686.5C654.167,682.833 653.667,679 653,675C650.333,664.333 649.667,653.5 651,642.5C652.333,631.5 655.333,621 660,611C664,601 669.667,591.833 677,583.5C684.333,575.167 692.667,568 702,562C728.667,544.667 749.5,522.667 764.5,496C779.5,469.333 787,440.333 787,409C786.333,385.667 781.333,363.167 772,341.5C762.667,319.833 749.333,300.667 732,284C714.667,267.333 694.833,254.5 672.5,245.5C650.167,236.5 626.667,231.667 602,231ZM309,450C312.333,446.667 316.5,445 321.5,445C326.5,445 331,446.667 335,450C352.333,467.333 365.833,487.167 375.5,509.5C385.167,531.833 390,555.333 390,580C390,604 385.167,627.167 375.5,649.5C365.833,671.833 352.333,691.667 335,709C333,711 330.833,712.333 328.5,713C326.167,713.667 324,714 322,714C319.333,714 316.833,713.667 314.5,713C312.167,712.333 310.333,711 309,709C305,705 303,700.5 303,695.5C303,690.5 305,686.333 309,683C323,669 333.833,653.167 341.5,635.5C349.167,617.833 353,599.333 353,580C353,560 349.167,541.167 341.5,523.5C333.833,505.833 323,490 309,476C305,472.667 303,468.5 303,463.5C303,458.5 305,454 309,450ZM255,503C258.333,499 262.5,497 267.5,497C272.5,497 277,498.667 281,502C291.667,512.667 299.833,524.667 305.5,538C311.167,551.333 314,565.333 314,580C314,594.667 311.167,608.667 305.5,622C299.833,635.333 291.667,647 281,657C279,659 276.833,660.333 274.5,661C272.167,661.667 270,662 268,662C265.333,662 262.833,661.5 260.5,660.5C258.167,659.5 256.333,658.333 255,657C251,653 249.167,648.5 249.5,643.5C249.833,638.5 251.667,634.333 255,631C262.333,623.667 267.833,615.667 271.5,607C275.167,598.333 277,589.333 277,580C277,570 275.167,560.667 271.5,552C267.833,543.333 262.333,535.667 255,529C251.667,525 249.833,520.5 249.5,515.5C249.167,510.5 251,506.333 255,503ZM200,541C203.333,537 207.667,535 213,535C218.333,535 222.667,537 226,541C236,551 241,563.167 241,577.5C241,591.833 236,604 226,614C224,616 222,617.333 220,618C218,618.667 215.667,619 213,619C210.333,619 208,618.667 206,618C204,617.333 202,616 200,614C196.667,610.667 195,606.333 195,601C195,595.667 196.667,591.333 200,588C202.667,585.333 204,581.833 204,577.5C204,573.167 202.667,569.667 200,567C196.667,563 195,558.5 195,553.5C195,548.5 196.667,544.333 200,541ZM601,282C637.667,282 669,294.667 695,320C721,345.333 734,375.667 734,411C734,416.333 732.167,420.833 728.5,424.5C724.833,428.167 720.333,430 715,430C709.667,430 705.333,428.167 702,424.5C698.667,420.833 697,416.333 697,411C697,385.667 687.5,364 668.5,346C649.5,328 627,319 601,319C577.667,319 557.333,325.833 540,339.5C522.667,353.167 511.667,370 507,390C513,390.667 518.833,391.667 524.5,393C530.167,394.333 535.667,396.333 541,399C555,406.333 565.833,416.833 573.5,430.5C581.167,444.167 584.667,458.333 584,473C582.667,488.333 577.333,502.167 568,514.5C558.667,526.833 547,535.667 533,541C531.667,541.667 530.5,542 529.5,542C528.5,542 527.333,542 526,542C522.667,542 519.333,541 516,539C512.667,537 510.333,534 509,530C507,525.333 507.167,520.667 509.5,516C511.833,511.333 515.333,508.333 520,507C527.333,503.667 533.5,498.833 538.5,492.5C543.5,486.167 546.333,479 547,471C547.667,463 545.833,455.5 541.5,448.5C537.167,441.5 531.333,436 524,432C519.333,429.333 514,427.833 508,427.5C502,427.167 496.333,427.667 491,429C488.333,429.667 485.667,429.833 483,429.5C480.333,429.167 477.667,428 475,426C473,424.667 471.333,422.667 470,420C468.667,417.333 468,414.333 468,411L468,411L468,411C468,375.667 481,345.333 507,320C533,294.667 564.333,282 601,282Z" fill="#000000" fill-opacity="1">
  </path>
</svg>