<!-- Exported by Character Map UWP -->
<svg height="100%" viewBox="246 216 529 586" width="100%" xmlns="http://www.w3.org/2000/svg" xmlns:xlink="http://www.w3.org/1999/xlink">
  <path d="M775,344L775,232C775,229.333 774.333,226.833 773,224.5C771.667,222.167 770,220 768,218C766,216.667 763.667,215.833 761,215.5C758.333,215.167 755.667,215.333 753,216L418,322C414.667,323.333 411.833,325.5 409.5,328.5C407.167,331.5 406,334.667 406,338L406,666C397.333,660 387.5,655.5 376.5,652.5C365.5,649.5 354.333,648 343,648C330.333,648 318.167,649.667 306.5,653C294.833,656.333 284.667,661.667 276,669C266,676.333 258.5,684.667 253.5,694C248.5,703.333 246,713.667 246,725C246,735.667 248.5,745.667 253.5,755C258.5,764.333 266,772.667 276,780C284.667,787.333 294.833,792.667 306.5,796C318.167,799.333 330.333,801 343,801C355,801 366.833,799.333 378.5,796C390.167,792.667 400.333,787.333 409,780C419,772.667 426.5,764.333 431.5,755C436.5,745.667 439,735.667 439,725L439,463L742,367L742,559C732.667,553 722.667,548.5 712,545.5C701.333,542.5 690,541 678,541C665.333,541 653.333,542.667 642,546C630.667,549.333 620.333,554.667 611,562C601.667,569.333 594.333,577.667 589,587C583.667,596.333 581,606.333 581,617C581,628.333 583.667,638.667 589,648C594.333,657.333 601.667,665.667 611,673C620.333,680.333 630.667,685.667 642,689C653.333,692.333 665.333,694 678,694C690.667,694 702.667,692.333 714,689C725.333,685.667 735.667,680.333 745,673C754.333,665.667 761.667,657.333 767,648C772.333,638.667 775,628.333 775,617L775,344C775,344 775,344 775,344C775,344 775,344 775,344ZM343,768C325.667,768 310.667,763.667 298,755C285.333,746.333 279,736.333 279,725C279,713 285.333,702.667 298,694C310.667,685.333 325.667,681 343,681C359.667,681 374.333,685.333 387,694C399.667,702.667 406,713 406,725C406,736.333 399.667,746.333 387,755C374.333,763.667 359.667,768 343,768ZM439,428L439,350L742,254L742,332L439,428ZM678,661C660.667,661 645.667,656.667 633,648C620.333,639.333 614,629 614,617C614,605.667 620.333,595.667 633,587C645.667,578.333 660.667,574 678,574C695.333,574 710.333,578.333 723,587C735.667,595.667 742,605.667 742,617C742,629 735.667,639.333 723,648C710.333,656.667 695.333,661 678,661Z" fill="#FFFFFF" fill-opacity="1">
  </path>
</svg>