<!-- Exported by Character Map UWP -->
<svg height="100%" viewBox="164 123 693 786" width="100%" xmlns="http://www.w3.org/2000/svg" xmlns:xlink="http://www.w3.org/1999/xlink">
  <path d="M722,123C740.667,123 757.667,128.667 773,140C788.333,151.333 798.667,166.333 804,185L804,185L830,275C830.667,277 831,279.167 831,281.5C831,283.833 830.333,285.667 829,287C828.333,289 827.167,290.667 825.5,292C823.833,293.333 822,294.333 820,295L820,295L317,440L841,440C845,440 848.5,441.5 851.5,444.5C854.5,447.5 856,451.333 856,456L856,456L856,824C856,847.333 847.667,867.333 831,884C814.333,900.667 794,909 770,909L770,909L586,909C582,909 578.5,907.5 575.5,904.5C572.5,901.5 571,898 571,894C571,890 572.5,886.5 575.5,883.5C578.5,880.5 582,879 586,879L586,879L770,879C785.333,879 798.333,873.5 809,862.5C819.667,851.5 825,838.667 825,824L825,824L825,615L224,615L224,824C224,838.667 229.333,851.5 240,862.5C250.667,873.5 263.333,879 278,879L278,879L463,879C467,879 470.5,880.5 473.5,883.5C476.5,886.5 478,890 478,894C478,898 476.5,901.5 473.5,904.5C470.5,907.5 467,909 463,909L463,909L278,909C254.667,909 234.667,900.667 218,884C201.333,867.333 193,847.333 193,824L193,824L193,458L167,369C163.667,358.333 162.667,347.333 164,336C165.333,324.667 169,314 175,304C180.333,294 187.333,285.5 196,278.5C204.667,271.5 214.667,266.333 226,263L226,263L698,126C702,125.333 706,124.667 710,124C714,123.333 718,123 722,123ZM524,879C528.667,879 532.5,880.5 535.5,883.5C538.5,886.5 540,890 540,894C540,898 538.5,901.5 535.5,904.5C532.5,907.5 528.667,909 524,909C520,909 516.5,907.5 513.5,904.5C510.5,901.5 509,898 509,894C509,890 510.5,886.5 513.5,883.5C516.5,880.5 520,879 524,879ZM473,654C475,652.667 477.333,652 480,652C482.667,652 485.333,652.667 488,654L488,654L623,732C625.667,733.333 627.667,735.167 629,737.5C630.333,739.833 631,742.333 631,745C631,747.667 630.333,750.167 629,752.5C627.667,754.833 625.667,756.667 623,758L623,758L488,836C486.667,836.667 485.333,837.167 484,837.5C482.667,837.833 481.333,838 480,838C478.667,838 477.333,837.833 476,837.5C474.667,837.167 473.667,836.667 473,836C470.333,834.667 468.333,832.833 467,830.5C465.667,828.167 465,825.667 465,823L465,823L465,667C465,664.333 465.667,661.833 467,659.5C468.333,657.167 470.333,655.333 473,654ZM496,694L496,796L585,745L496,694ZM720,471L635,471L570,584L655,584ZM600,471L515,471L449,584L534,584ZM479,471L394,471L329,584L414,584L479,471ZM359,471L224,471L224,584L294,584L359,471ZM825,471L755,471L690,584L825,584ZM243,290L234,293C227.333,295 221.167,298.167 215.5,302.5C209.833,306.833 205,312.333 201,319C197.667,325.667 195.667,332.5 195,339.5C194.333,346.5 195,353.333 197,360L197,360L219,437L354,397L245,292C245,292 244.833,291.833 244.5,291.5C244.167,291.167 243.667,290.667 243,290ZM359,257L277,280L386,385C386.667,385.667 387.167,386.167 387.5,386.5C387.833,386.833 388,387.333 388,388L388,388L470,364L361,259C360.333,258.333 359.833,257.833 359.5,257.5C359.167,257.167 359,257 359,257ZM474,223L392,247L502,352C502,352 502.167,352.167 502.5,352.5C502.833,352.833 503.333,353.333 504,354L504,354L586,330L476,225C476,225 475.833,224.833 475.5,224.5C475.167,224.167 474.667,223.667 474,223ZM590,190L508,213L617,318C617.667,318.667 618.167,319.167 618.5,319.5C618.833,319.833 619,320.333 619,321L619,321L701,297L592,192C591.333,191.333 590.833,190.833 590.5,190.5C590.167,190.167 590,190 590,190ZM722,154C719.333,154 716.667,154.167 714,154.5C711.333,154.833 709,155.333 707,156L707,156L624,180L733,285C733.667,285 734.167,285.333 734.5,286C734.833,286.667 735,287 735,287L735,287L797,269L775,193C771,181.667 764.167,172.333 754.5,165C744.833,157.667 734,154 722,154Z" fill="#FFFFFF" fill-opacity="1">
  </path>
</svg>